ffmpeg started on 2025-04-07 at 14:01:20
Report written to "D:\Convert\FFMetrics\reports\psnr_report-1.txt"
Log level: 32
Command line:
ffmpeg -hide_banner -nostdin -r 24000/1001 -i "G:\\\xc0\xed\xe8\xec\xe5\\\xce\xed\xe3\xee\xe8\xed\xe3\xe8\\!_35_\xcb\xe5\xf2\xee_2024\\DreamCast-1\\\xc0\xeb\xff \xe8\xed\xee\xe3\xe4\xe0 \xea\xee\xea\xe5\xf2\xed\xe8\xf7\xe0\xe5\xf2 \xf1\xee \xec\xed\xee\xe9 \xef\xee-\xf0\xf3\xf1\xf1\xea\xe8\\01\\[DC] Roshidere - 01_Telegram_HEVC(6).mkv" -r 24000/1001 -i "G:\\\xc0\xed\xe8\xec\xe5\\\xce\xed\xe3\xee\xe8\xed\xe3\xe8\\!_35_\xcb\xe5\xf2\xee_2024\\DreamCast-1\\\xc0\xeb\xff \xe8\xed\xee\xe3\xe4\xe0 \xea\xee\xea\xe5\xf2\xed\xe8\xf7\xe0\xe5\xf2 \xf1\xee \xec\xed\xee\xe9 \xef\xee-\xf0\xf3\xf1\xf1\xea\xe8\\01\\[DC] Roshidere - 01_Telegram.mp4" -lavfi "psnr=stats_file='D\\:/Convert/FFMetrics/logs/psnr_logfile-1.txt'" -f null -
Input #0, matroska,webm, from 'G:\Аниме\Онгоинги\!_35_Лето_2024\DreamCast-1\Аля иногда кокетничает со мной по-русски\01\[DC] Roshidere - 01_Telegram_HEVC(6).mkv':
  Metadata:
    COMPATIBLE_BRANDS: isomiso2avc1mp41
    MAJOR_BRAND     : isom
    MINOR_VERSION   : 512
    ENCODER         : Lavf61.7.100
  Duration: 00:24:46.98, start: -0.021000, bitrate: 1244 kb/s
  Stream #0:0: Video: hevc (Main 10), yuv420p10le(tv, bt709, progressive), 1920x1080 [SAR 1:1 DAR 16:9], 23.98 fps, 23.98 tbr, 1k tbn (default)
      Metadata:
        HANDLER_NAME    : VideoHandler
        VENDOR_ID       : [0][0][0][0]
        ENCODER         : Lavc61.19.100 libx265
        DURATION        : 00:24:46.485000000
  Stream #0:1: Audio: aac (LC), 48000 Hz, stereo, fltp (default)
      Metadata:
        HANDLER_NAME    : SoundHandler
        VENDOR_ID       : [0][0][0][0]
        ENCODER         : Lavc61.19.100 aac
        DURATION        : 00:24:46.977000000
Input #1, mov,mp4,m4a,3gp,3g2,mj2, from 'G:\Аниме\Онгоинги\!_35_Лето_2024\DreamCast-1\Аля иногда кокетничает со мной по-русски\01\[DC] Roshidere - 01_Telegram.mp4':
  Metadata:
    major_brand     : isom
    minor_version   : 512
    compatible_brands: isomiso2avc1mp41
    encoder         : Lavf60.16.100
  Duration: 00:24:46.92, start: 0.000000, bitrate: 3835 kb/s
  Stream #1:0[0x1](und): Video: h264 (High) (avc1 / 0x31637661), yuv420p(tv, bt709, progressive), 1920x1080 [SAR 1:1 DAR 16:9], 3689 kb/s, 23.98 fps, 23.98 tbr, 24k tbn (default)
      Metadata:
        handler_name    : VideoHandler
        vendor_id       : [0][0][0][0]
        encoder         : Lavc60.31.102 h264_qsv
  Stream #1:1[0x2](und): Audio: aac (HE-AACv2) (mp4a / 0x6134706D), 48000 Hz, stereo, fltp, 144 kb/s (default)
      Metadata:
        handler_name    : SoundHandler
        vendor_id       : [0][0][0][0]
Stream mapping:
  Stream #0:0 (hevc) -> psnr
  Stream #1:0 (h264) -> psnr
  psnr:default -> Stream #0:0 (wrapped_avframe)
  Stream #0:1 -> #0:1 (aac (native) -> pcm_s16le (native))
Output #0, null, to 'pipe:':
  Metadata:
    COMPATIBLE_BRANDS: isomiso2avc1mp41
    MAJOR_BRAND     : isom
    MINOR_VERSION   : 512
    encoder         : Lavf61.7.100
  Stream #0:0: Video: wrapped_avframe, yuv420p10le(tv, bt709, progressive), 1920x1080 [SAR 1:1 DAR 16:9], q=2-31, 200 kb/s, 23.98 fps, 23.98 tbn
      Metadata:
        encoder         : Lavc61.19.100 wrapped_avframe
  Stream #0:1: Audio: pcm_s16le, 48000 Hz, stereo, s16, 1536 kb/s (default)
      Metadata:
        HANDLER_NAME    : SoundHandler
        VENDOR_ID       : [0][0][0][0]
        DURATION        : 00:24:46.977000000
        encoder         : Lavc61.19.100 pcm_s16le
frame=  175 fps=0.0 q=-0.0 size=N/A time=00:00:07.29 bitrate=N/A speed=14.2x    frame=  384 fps=371 q=-0.0 size=N/A time=00:00:16.01 bitrate=N/A speed=15.5x    frame=  562 fps=365 q=-0.0 size=N/A time=00:00:23.44 bitrate=N/A speed=15.2x    frame=  745 fps=361 q=-0.0 size=N/A time=00:00:31.07 bitrate=N/A speed=15.1x    frame=  972 fps=378 q=-0.0 size=N/A time=00:00:40.54 bitrate=N/A speed=15.8x    frame= 1179 fps=382 q=-0.0 size=N/A time=00:00:49.17 bitrate=N/A speed=15.9x    frame= 1417 fps=392 q=-0.0 size=N/A time=00:00:59.10 bitrate=N/A speed=16.4x    frame= 1675 fps=406 q=-0.0 size=N/A time=00:01:09.86 bitrate=N/A speed=16.9x    frame= 1939 fps=418 q=-0.0 size=N/A time=00:01:20.87 bitrate=N/A speed=17.5x    frame= 2124 fps=412 q=-0.0 size=N/A time=00:01:28.58 bitrate=N/A speed=17.2x    frame= 2367 fps=418 q=-0.0 size=N/A time=00:01:38.72 bitrate=N/A speed=17.4x    frame= 2629 fps=425 q=-0.0 size=N/A time=00:01:49.65 bitrate=N/A speed=17.7x    frame= 2892 fps=431 q=-0.0 size=N/A time=00:02:00.62 bitrate=N/A speed=  18x    frame= 3152 fps=437 q=-0.0 size=N/A time=00:02:11.46 bitrate=N/A speed=18.2x    frame= 3426 fps=443 q=-0.0 size=N/A time=00:02:22.89 bitrate=N/A speed=18.5x    frame= 3698 fps=448 q=-0.0 size=N/A time=00:02:34.23 bitrate=N/A speed=18.7x    frame= 3953 fps=451 q=-0.0 size=N/A time=00:02:44.87 bitrate=N/A speed=18.8x    frame= 4183 fps=451 q=-0.0 size=N/A time=00:02:54.46 bitrate=N/A speed=18.8x    frame= 4438 fps=453 q=-0.0 size=N/A time=00:03:05.10 bitrate=N/A speed=18.9x    frame= 4664 fps=452 q=-0.0 size=N/A time=00:03:14.52 bitrate=N/A speed=18.9x    frame= 4912 fps=454 q=-0.0 size=N/A time=00:03:24.91 bitrate=N/A speed=18.9x    frame= 5170 fps=456 q=-0.0 size=N/A time=00:03:35.63 bitrate=N/A speed=  19x    frame= 5417 fps=457 q=-0.0 size=N/A time=00:03:45.93 bitrate=N/A speed=19.1x    frame= 5668 fps=458 q=-0.0 size=N/A time=00:03:56.40 bitrate=N/A speed=19.1x    frame= 5905 fps=458 q=-0.0 size=N/A time=00:04:06.28 bitrate=N/A speed=19.1x    frame= 6168 fps=460 q=-0.0 size=N/A time=00:04:17.25 bitrate=N/A speed=19.2x    frame= 6415 fps=460 q=-0.0 size=N/A time=00:04:27.55 bitrate=N/A speed=19.2x    frame= 6607 fps=457 q=-0.0 size=N/A time=00:04:35.56 bitrate=N/A speed=19.1x    frame= 6754 fps=451 q=-0.0 size=N/A time=00:04:41.69 bitrate=N/A speed=18.8x    frame= 6991 fps=452 q=-0.0 size=N/A time=00:04:51.58 bitrate=N/A speed=18.8x    frame= 7170 fps=448 q=-0.0 size=N/A time=00:04:59.04 bitrate=N/A speed=18.7x    frame= 7366 fps=446 q=-0.0 size=N/A time=00:05:07.26 bitrate=N/A speed=18.6x    frame= 7577 fps=445 q=-0.0 size=N/A time=00:05:16.02 bitrate=N/A speed=18.6x    frame= 7776 fps=443 q=-0.0 size=N/A time=00:05:24.32 bitrate=N/A speed=18.5x    frame= 7976 fps=442 q=-0.0 size=N/A time=00:05:32.66 bitrate=N/A speed=18.4x    frame= 8196 fps=441 q=-0.0 size=N/A time=00:05:41.84 bitrate=N/A speed=18.4x    frame= 8367 fps=438 q=-0.0 size=N/A time=00:05:48.97 bitrate=N/A speed=18.3x    frame= 8527 fps=435 q=-0.0 size=N/A time=00:05:55.64 bitrate=N/A speed=18.1x    frame= 8711 fps=433 q=-0.0 size=N/A time=00:06:03.32 bitrate=N/A speed=18.1x    frame= 8901 fps=431 q=-0.0 size=N/A time=00:06:11.24 bitrate=N/A speed=  18x    frame= 9136 fps=432 q=-0.0 size=N/A time=00:06:21.04 bitrate=N/A speed=  18x    frame= 9354 fps=432 q=-0.0 size=N/A time=00:06:30.13 bitrate=N/A speed=  18x    frame= 9614 fps=433 q=-0.0 size=N/A time=00:06:40.98 bitrate=N/A speed=18.1x    frame= 9872 fps=435 q=-0.0 size=N/A time=00:06:51.74 bitrate=N/A speed=18.1x    frame=10121 fps=436 q=-0.0 size=N/A time=00:07:02.13 bitrate=N/A speed=18.2x    frame=10379 fps=437 q=-0.0 size=N/A time=00:07:12.89 bitrate=N/A speed=18.2x    frame=10635 fps=439 q=-0.0 size=N/A time=00:07:23.56 bitrate=N/A speed=18.3x    frame=10829 fps=437 q=-0.0 size=N/A time=00:07:31.65 bitrate=N/A speed=18.2x    frame=11057 fps=437 q=-0.0 size=N/A time=00:07:41.16 bitrate=N/A speed=18.2x    frame=11294 fps=438 q=-0.0 size=N/A time=00:07:51.05 bitrate=N/A speed=18.3x    frame=11533 fps=438 q=-0.0 size=N/A time=00:08:01.02 bitrate=N/A speed=18.3x    frame=11772 fps=439 q=-0.0 size=N/A time=00:08:10.99 bitrate=N/A speed=18.3x    frame=12015 fps=439 q=-0.0 size=N/A time=00:08:21.12 bitrate=N/A speed=18.3x    frame=12278 fps=441 q=-0.0 size=N/A time=00:08:32.09 bitrate=N/A speed=18.4x    frame=12526 fps=442 q=-0.0 size=N/A time=00:08:42.43 bitrate=N/A speed=18.4x    frame=12721 fps=440 q=-0.0 size=N/A time=00:08:50.57 bitrate=N/A speed=18.4x    frame=12980 fps=441 q=-0.0 size=N/A time=00:09:01.37 bitrate=N/A speed=18.4x    frame=13194 fps=441 q=-0.0 size=N/A time=00:09:10.29 bitrate=N/A speed=18.4x    frame=13427 fps=441 q=-0.0 size=N/A time=00:09:20.01 bitrate=N/A speed=18.4x    frame=13699 fps=443 q=-0.0 size=N/A time=00:09:31.36 bitrate=N/A speed=18.5x    frame=13964 fps=444 q=-0.0 size=N/A time=00:09:42.41 bitrate=N/A speed=18.5x    frame=14221 fps=445 q=-0.0 size=N/A time=00:09:53.13 bitrate=N/A speed=18.5x    frame=14490 fps=446 q=-0.0 size=N/A time=00:10:04.35 bitrate=N/A speed=18.6x    frame=14750 fps=447 q=-0.0 size=N/A time=00:10:15.19 bitrate=N/A speed=18.6x    frame=15013 fps=448 q=-0.0 size=N/A time=00:10:26.16 bitrate=N/A speed=18.7x    frame=15249 fps=448 q=-0.0 size=N/A time=00:10:36.01 bitrate=N/A speed=18.7x    frame=15478 fps=448 q=-0.0 size=N/A time=00:10:45.56 bitrate=N/A speed=18.7x    frame=15725 fps=448 q=-0.0 size=N/A time=00:10:55.86 bitrate=N/A speed=18.7x    frame=15969 fps=449 q=-0.0 size=N/A time=00:11:06.04 bitrate=N/A speed=18.7x    frame=16232 fps=449 q=-0.0 size=N/A time=00:11:17.00 bitrate=N/A speed=18.7x    frame=16462 fps=450 q=-0.0 size=N/A time=00:11:26.60 bitrate=N/A speed=18.7x    frame=16730 fps=451 q=-0.0 size=N/A time=00:11:37.78 bitrate=N/A speed=18.8x    frame=16985 fps=451 q=-0.0 size=N/A time=00:11:48.41 bitrate=N/A speed=18.8x    frame=17235 fps=452 q=-0.0 size=N/A time=00:11:58.84 bitrate=N/A speed=18.8x    frame=17501 fps=452 q=-0.0 size=N/A time=00:12:09.93 bitrate=N/A speed=18.9x    frame=17764 fps=453 q=-0.0 size=N/A time=00:12:20.90 bitrate=N/A speed=18.9x    frame=18022 fps=454 q=-0.0 size=N/A time=00:12:31.66 bitrate=N/A speed=18.9x    frame=18245 fps=453 q=-0.0 size=N/A time=00:12:40.96 bitrate=N/A speed=18.9x    frame=18491 fps=454 q=-0.0 size=N/A time=00:12:51.22 bitrate=N/A speed=18.9x    frame=18768 fps=455 q=-0.0 size=N/A time=00:13:02.78 bitrate=N/A speed=  19x    frame=19038 fps=456 q=-0.0 size=N/A time=00:13:14.04 bitrate=N/A speed=  19x    frame=19316 fps=457 q=-0.0 size=N/A time=00:13:25.63 bitrate=N/A speed=  19x    frame=19579 fps=457 q=-0.0 size=N/A time=00:13:36.60 bitrate=N/A speed=19.1x    frame=19843 fps=458 q=-0.0 size=N/A time=00:13:47.61 bitrate=N/A speed=19.1x    frame=20103 fps=459 q=-0.0 size=N/A time=00:13:58.46 bitrate=N/A speed=19.1x    frame=20375 fps=459 q=-0.0 size=N/A time=00:14:09.80 bitrate=N/A speed=19.2x    frame=20615 fps=459 q=-0.0 size=N/A time=00:14:19.81 bitrate=N/A speed=19.2x    frame=20836 fps=459 q=-0.0 size=N/A time=00:14:29.03 bitrate=N/A speed=19.1x    frame=21108 fps=460 q=-0.0 size=N/A time=00:14:40.37 bitrate=N/A speed=19.2x    frame=21381 fps=461 q=-0.0 size=N/A time=00:14:51.76 bitrate=N/A speed=19.2x    frame=21628 fps=461 q=-0.0 size=N/A time=00:15:02.10 bitrate=N/A speed=19.2x    frame=21917 fps=462 q=-0.0 size=N/A time=00:15:14.12 bitrate=N/A speed=19.3x    frame=22184 fps=463 q=-0.0 size=N/A time=00:15:25.25 bitrate=N/A speed=19.3x    frame=22451 fps=463 q=-0.0 size=N/A time=00:15:36.39 bitrate=N/A speed=19.3x    frame=22671 fps=463 q=-0.0 size=N/A time=00:15:45.56 bitrate=N/A speed=19.3x    frame=22954 fps=464 q=-0.0 size=N/A time=00:15:57.37 bitrate=N/A speed=19.3x    frame=23208 fps=464 q=-0.0 size=N/A time=00:16:07.96 bitrate=N/A speed=19.3x    frame=23489 fps=465 q=-0.0 size=N/A time=00:16:19.68 bitrate=N/A speed=19.4x    frame=23745 fps=465 q=-0.0 size=N/A time=00:16:30.36 bitrate=N/A speed=19.4x    frame=24013 fps=466 q=-0.0 size=N/A time=00:16:41.58 bitrate=N/A speed=19.4x    frame=24245 fps=465 q=-0.0 size=N/A time=00:16:51.21 bitrate=N/A speed=19.4x    frame=24462 fps=465 q=-0.0 size=N/A time=00:17:00.31 bitrate=N/A speed=19.4x    frame=24730 fps=465 q=-0.0 size=N/A time=00:17:11.44 bitrate=N/A speed=19.4x    frame=24969 fps=466 q=-0.0 size=N/A time=00:17:21.41 bitrate=N/A speed=19.4x    frame=25217 fps=466 q=-0.0 size=N/A time=00:17:31.75 bitrate=N/A speed=19.4x    frame=25480 fps=466 q=-0.0 size=N/A time=00:17:42.72 bitrate=N/A speed=19.4x    frame=25758 fps=467 q=-0.0 size=N/A time=00:17:54.32 bitrate=N/A speed=19.5x    frame=26041 fps=467 q=-0.0 size=N/A time=00:18:06.12 bitrate=N/A speed=19.5x    frame=26307 fps=468 q=-0.0 size=N/A time=00:18:17.22 bitrate=N/A speed=19.5x    frame=26584 fps=469 q=-0.0 size=N/A time=00:18:28.77 bitrate=N/A speed=19.5x    frame=26860 fps=469 q=-0.0 size=N/A time=00:18:40.28 bitrate=N/A speed=19.6x    frame=27112 fps=469 q=-0.0 size=N/A time=00:18:50.79 bitrate=N/A speed=19.6x    frame=27371 fps=470 q=-0.0 size=N/A time=00:19:01.59 bitrate=N/A speed=19.6x    frame=27606 fps=469 q=-0.0 size=N/A time=00:19:11.40 bitrate=N/A speed=19.6x    frame=27806 fps=469 q=-0.0 size=N/A time=00:19:19.74 bitrate=N/A speed=19.6x    frame=28025 fps=468 q=-0.0 size=N/A time=00:19:28.87 bitrate=N/A speed=19.5x    frame=28265 fps=468 q=-0.0 size=N/A time=00:19:38.88 bitrate=N/A speed=19.5x    frame=28523 fps=469 q=-0.0 size=N/A time=00:19:49.64 bitrate=N/A speed=19.5x    frame=28777 fps=469 q=-0.0 size=N/A time=00:20:00.24 bitrate=N/A speed=19.6x    frame=29028 fps=469 q=-0.0 size=N/A time=00:20:10.70 bitrate=N/A speed=19.6x    frame=29290 fps=469 q=-0.0 size=N/A time=00:20:21.63 bitrate=N/A speed=19.6x    frame=29560 fps=470 q=-0.0 size=N/A time=00:20:32.89 bitrate=N/A speed=19.6x    frame=29804 fps=470 q=-0.0 size=N/A time=00:20:43.07 bitrate=N/A speed=19.6x    frame=30064 fps=470 q=-0.0 size=N/A time=00:20:53.91 bitrate=N/A speed=19.6x    frame=30303 fps=470 q=-0.0 size=N/A time=00:21:03.88 bitrate=N/A speed=19.6x    frame=30523 fps=470 q=-0.0 size=N/A time=00:21:13.06 bitrate=N/A speed=19.6x    frame=30688 fps=469 q=-0.0 size=N/A time=00:21:19.94 bitrate=N/A speed=19.5x    frame=30887 fps=468 q=-0.0 size=N/A time=00:21:28.24 bitrate=N/A speed=19.5x    frame=31051 fps=467 q=-0.0 size=N/A time=00:21:35.08 bitrate=N/A speed=19.5x    frame=31231 fps=466 q=-0.0 size=N/A time=00:21:42.59 bitrate=N/A speed=19.4x    frame=31471 fps=466 q=-0.0 size=N/A time=00:21:52.60 bitrate=N/A speed=19.4x    frame=31728 fps=466 q=-0.0 size=N/A time=00:22:03.32 bitrate=N/A speed=19.4x    frame=31986 fps=466 q=-0.0 size=N/A time=00:22:14.08 bitrate=N/A speed=19.4x    frame=32255 fps=467 q=-0.0 size=N/A time=00:22:25.30 bitrate=N/A speed=19.5x    frame=32509 fps=467 q=-0.0 size=N/A time=00:22:35.89 bitrate=N/A speed=19.5x    frame=32763 fps=467 q=-0.0 size=N/A time=00:22:46.49 bitrate=N/A speed=19.5x    frame=33019 fps=467 q=-0.0 size=N/A time=00:22:57.16 bitrate=N/A speed=19.5x    frame=33278 fps=468 q=-0.0 size=N/A time=00:23:07.96 bitrate=N/A speed=19.5x    frame=33495 fps=467 q=-0.0 size=N/A time=00:23:17.02 bitrate=N/A speed=19.5x    frame=33684 fps=466 q=-0.0 size=N/A time=00:23:24.90 bitrate=N/A speed=19.5x    frame=33828 fps=465 q=-0.0 size=N/A time=00:23:30.90 bitrate=N/A speed=19.4x    frame=33975 fps=464 q=-0.0 size=N/A time=00:23:37.04 bitrate=N/A speed=19.3x    frame=34123 fps=463 q=-0.0 size=N/A time=00:23:43.21 bitrate=N/A speed=19.3x    frame=34288 fps=462 q=-0.0 size=N/A time=00:23:50.09 bitrate=N/A speed=19.3x    frame=34487 fps=461 q=-0.0 size=N/A time=00:23:58.39 bitrate=N/A speed=19.2x    frame=34656 fps=460 q=-0.0 size=N/A time=00:24:05.44 bitrate=N/A speed=19.2x    frame=34803 fps=459 q=-0.0 size=N/A time=00:24:11.57 bitrate=N/A speed=19.1x    frame=34968 fps=458 q=-0.0 size=N/A time=00:24:18.45 bitrate=N/A speed=19.1x    frame=35123 fps=457 q=-0.0 size=N/A time=00:24:24.92 bitrate=N/A speed=19.1x    frame=35271 fps=456 q=-0.0 size=N/A time=00:24:31.09 bitrate=N/A speed=  19x    frame=35417 fps=455 q=-0.0 size=N/A time=00:24:37.18 bitrate=N/A speed=  19x    frame=35564 fps=454 q=-0.0 size=N/A time=00:24:43.31 bitrate=N/A speed=18.9x    [Parsed_psnr_0 @ 0000023623f5d240] PSNR y:47.127979 u:49.838829 v:49.362375 average:47.805358 min:39.680334 max:inf
[out#0/null @ 0000023623f5dac0] video:15314KiB audio:278812KiB subtitle:0KiB other streams:0KiB global headers:0KiB muxing overhead: unknown
frame=35640 fps=454 q=-0.0 Lsize=N/A time=00:24:46.48 bitrate=N/A speed=18.9x    
